{"title":"The Last Emperor 1987","uid":14766450,"size":4912764626,"categoryP":"video","categoryS":"hd___movies","magnet":"?xt=urn:btih:00a3881a85892887bbe05e6785cd1255b5b2c56d&amp;dn=The+Last+Emperor+1987&amp;tr=udp%3A%2F%2Ftracker.leechers-paradise.org%3A6969&amp;tr=udp%3A%2F%2Fzer0day.ch%3A1337&amp;tr=udp%3A%2F%2Fopen.demonii.com%3A1337&amp;tr=udp%3A%2F%2Ftracker.coppersurfer.tk%3A6969&amp;tr=udp%3A%2F%2Fexodus.desync.com%3A6969","seeders":0,"leechers":0,"uploader":"fant44000","files":1,"time":1464888086,"description":"General\r\nFormat : Matroska\r\nFormat version : Version 2\r\nFile size : 4.58 GiB\r\nDuration : 2h 43mn\r\nOverall bit rate : 4 016 Kbps\r\nEncoded date : UTC 2016-06-01T05:28:03Z\r\nWriting application : HandBrake 0.10.5 2016021100\r\nWriting library : Lavf55.12.0 / Lavf55.12.0\r\n\r\nVideo\r\nID : 1\r\nFormat : HEVC\r\nFormat/Info : High Efficiency Video Coding\r\nFormat profile :   @Main\r\nCodec ID : V_MPEGH/ISO/HEVC\r\nDuration : 2h 43mn\r\nBit rate : 2 427 Kbps\r\nWidth : 1 920 pixels\r\nHeight : 952 pixels\r\nDisplay aspect ratio : 2.017\r\nFrame rate mode : Constant\r\nFrame rate : 23.976 (24000/1001) fps\r\nColor space : YUV\r\nChroma subsampling : 4:2:0\r\nBit depth : 8 bits\r\nBits/(Pixel*Frame) : 0.055\r\nStream size : 2.77 GiB (60%)\r\nWriting library : x265 1.9:[Windows][GCC 4.9.0][64 bit] 8bit\r\nEncoding settings : wpp / ctu=64 / min-cu-size=8 / max-tu-size=32 / tu-intra-depth=1 / tu-inter-depth=1 / me=1 / subme=2 / merange=57 / no-rect / no-amp / max-merge=2 / temporal-mvp / no-early-skip / rdpenalty=0 / no-tskip / no-tskip-fast / strong-intra-smoothing / no-lossless / no-cu-lossless / no-constrained-intra / fast-intra / open-gop / no-temporal-layers / interlace=0 / keyint=240 / min-keyint=24 / scenecut=40 / rc-lookahead=10 / lookahead-slices=6 / bframes=4 / bframe-bias=0 / b-adapt=0 / ref=1 / limit-refs=3 / no-limit-modes / weightp / no-weightb / aq-mode=1 / qg-size=32 / aq-strength=1.00 / cbqpoffs=0 / crqpoffs=0 / rd=2 / psy-rd=2.00 / rdoq-level=0 / psy-rdoq=0.00 / signhide / deblock / sao / no-sao-non-deblock / b-pyramid / cutree / no-intra-refresh / rc=2 / pass / bitrate=2500 / qcomp=0.60 / qpmin=0 / qpmax=51 / qpstep=4 / cplxblur=20.0 / qblur=0.5 / vbv-maxrate=12000 / vbv-bufsize=12000 / ipratio=1.40 / pbratio=1.30\r\nDefault : Yes\r\nForced : No\r\nColor range : Limited\r\nColor primaries : BT.709\r\nTransfer characteristics : BT.709\r\nMatrix coefficients : BT.709\r\n\r\nAudio\r\nID : 2\r\nFormat : DTS\r\nFormat/Info : Digital Theater Systems\r\nMode : 16\r\nFormat settings, Endianness : Big\r\nCodec ID : A_DTS\r\nDuration : 2h 43mn\r\nBit rate mode : Constant\r\nBit rate : 1 509 Kbps\r\nChannel(s) : 2 channels\r\nChannel positions : Front: L R\r\nSampling rate : 48.0 KHz\r\nFrame rate : 93.750 fps (512 spf)\r\nBit depth : 24 bits\r\nCompression mode : Lossy\r\nStream size : 1.72 GiB (38%)\r\nTitle : Stereo\r\nLanguage : English\r\nDefault : Yes\r\nForced : No","torrent":{"xt":"urn:btih:00a3881a85892887bbe05e6785cd1255b5b2c56d","amp;dn":"The+Last+Emperor+1987","amp;tr":["udp%3A%2F%2Ftracker.leechers-paradise.org%3A6969","udp%3A%2F%2Fzer0day.ch%3A1337","udp%3A%2F%2Fopen.demonii.com%3A1337","udp%3A%2F%2Ftracker.coppersurfer.tk%3A6969","udp%3A%2F%2Fexodus.desync.com%3A6969"],"infoHash":"00a3881a85892887bbe05e6785cd1255b5b2c56d","infoHashBuffer":{"type":"Buffer","data":[0,163,136,26,133,137,40,135,187,224,94,103,133,205,18,85,181,178,197,109]},"announce":[],"urlList":[]}}